# xmcd CD database file
#
# Track frame offsets:
#	182
#	16342
#	31252
#	55660
#	78390
#	103582
#	124527
#	145652
#	164620
#	186435
#	202582
#	218497
#	235400
#
# Disc length: 3426 seconds
#
# Revision: 0
# Processed by: cddbd v1.4PL0 Copyright (c) Steve Scherf et al.
# Submitted via: CDex 1.50beta10
#
DISCID=a30d600d
DTITLE=Peter Nathanson - Blues Calling
DYEAR=1994
DGENRE=Blues
TTITLE0=Where ther's smoke
TTITLE1=Blues calling
TTITLE2=Good day for the blues
TTITLE3=One two three
TTITLE4=I've got suspicions
TTITLE5=Depending on you
TTITLE6=Wrong to right
TTITLE7=It reminds me of you
TTITLE8=Thanks God for my baby
TTITLE9=Claudia
TTITLE10=Times like these
TTITLE11=Rather die slowly
TTITLE12=I'm still in love with you
EXTD=YEAR: 1994
EXTT0=
EXTT1=
EXTT2=
EXTT3=
EXTT4=
EXTT5=
EXTT6=
EXTT7=
EXTT8=
EXTT9=
EXTT10=
EXTT11=
EXTT12=
PLAYORDER=
